<?xml version="1.0" encoding="UTF-8"?>
<svg xmlns="http://www.w3.org/2000/svg" xmlns:xlink="http://www.w3.org/1999/xlink" width="283.465pt" height="283.465pt" viewBox="0 0 283.465 283.465" version="1.2">
<g id="surface1">
<path style=" stroke:none;fill-rule:nonzero;fill:rgb(12.548828%,30.587769%,30.195618%);fill-opacity:1;" d="M 161.296875 57.855469 C 163.773438 58.726562 168.273438 49.527344 168.304688 48.140625 C 168.339844 46.753906 169.011719 40.316406 168.3125 40.316406 C 163.167969 44.761719 159.789062 50.007812 159.460938 51.519531 C 159.128906 53.027344 158.816406 56.988281 161.296875 57.855469 "/>
<path style=" stroke:none;fill-rule:nonzero;fill:rgb(12.548828%,30.587769%,30.195618%);fill-opacity:1;" d="M 177.8125 53.046875 C 179.570312 50.003906 181.4375 44.410156 181.4375 44.410156 C 181.4375 44.410156 174.316406 47.054688 173.171875 47.765625 C 172.03125 48.476562 167.730469 52.570312 169.980469 55.515625 C 172.230469 58.46875 176.050781 56.089844 177.8125 53.046875 "/>
<path style=" stroke:none;fill-rule:nonzero;fill:rgb(12.548828%,30.587769%,30.195618%);fill-opacity:1;" d="M 170.628906 67.285156 C 173.167969 71.042969 180.730469 64.648438 183.769531 60.011719 C 189.320312 51.542969 187.773438 52.488281 187.773438 52.488281 C 187.773438 52.488281 181.164062 55.839844 178.648438 56.96875 C 176.136719 58.097656 168.089844 63.53125 170.628906 67.285156 "/>
<path style=" stroke:none;fill-rule:nonzero;fill:rgb(12.548828%,30.587769%,30.195618%);fill-opacity:1;" d="M 148.308594 69.707031 C 153.109375 71.410156 155.511719 60.003906 155.511719 58.246094 C 155.511719 56.484375 155.03125 50.085938 155.03125 50.085938 C 155.03125 50.085938 151.191406 55.527344 149.753906 57.925781 C 148.308594 60.328125 143.511719 68.007812 148.308594 69.707031 "/>
<path style=" stroke:none;fill-rule:nonzero;fill:rgb(12.548828%,30.587769%,30.195618%);fill-opacity:1;" d="M 185.105469 68.316406 C 187.023438 68.667969 188.4375 67.789062 189.140625 66.972656 C 192.296875 65.335938 195.628906 57.910156 195.628906 57.910156 C 195.628906 57.910156 187.648438 60.992188 184.378906 63.800781 C 183.4375 64.96875 183.183594 67.96875 185.105469 68.316406 "/>
<path style=" stroke:none;fill-rule:nonzero;fill:rgb(12.548828%,30.587769%,30.195618%);fill-opacity:1;" d="M 157.390625 76.890625 C 159.472656 78.652344 161.710938 75.132812 162.992188 73.210938 C 164.273438 71.292969 167.609375 60.195312 167.609375 60.195312 C 167.609375 60.195312 160.109375 63.605469 157.390625 68.570312 C 154.671875 73.53125 155.308594 75.132812 157.390625 76.890625 "/>
<path style=" stroke:none;fill-rule:nonzero;fill:rgb(12.548828%,30.587769%,30.195618%);fill-opacity:1;" d="M 186.066406 76.328125 C 188.15625 79.191406 190.332031 76.042969 192.714844 73.859375 C 195.097656 71.679688 199.066406 67.3125 199.066406 67.3125 C 199.066406 67.3125 191.128906 68.105469 188.945312 69.890625 C 186.757812 71.679688 183.980469 73.464844 186.066406 76.328125 "/>
<path style=" stroke:none;fill-rule:nonzero;fill:rgb(12.548828%,30.587769%,30.195618%);fill-opacity:1;" d="M 135.179688 84.003906 C 138.875 86.414062 139.351562 82.078125 140.621094 79.410156 C 141.890625 76.738281 142.574219 65.1875 142.574219 65.1875 C 142.574219 65.1875 139.359375 67.117188 136.269531 70.71875 C 133.1875 74.320312 131.476562 81.589844 135.179688 84.003906 "/>
<path style=" stroke:none;fill-rule:nonzero;fill:rgb(12.548828%,30.587769%,30.195618%);fill-opacity:1;" d="M 178.621094 78.628906 C 180.605469 77.035156 185.5 70.015625 185.5 70.015625 C 185.5 70.015625 178.222656 72.871094 176.382812 73.992188 C 174.535156 75.113281 170.082031 79.816406 171.703125 81.476562 C 173.320312 83.136719 176.636719 80.214844 178.621094 78.628906 "/>
<path style=" stroke:none;fill-rule:nonzero;fill:rgb(12.548828%,30.587769%,30.195618%);fill-opacity:1;" d="M 166.351562 74.648438 C 164.914062 76.410156 163.867188 76.5625 164.917969 80.074219 C 164.917969 80.074219 166.832031 81.371094 168.273438 79.929688 C 169.710938 78.492188 172.988281 71.65625 172.988281 71.65625 C 172.988281 71.65625 167.792969 72.890625 166.351562 74.648438 "/>
<path style=" stroke:none;fill-rule:nonzero;fill:rgb(12.548828%,30.587769%,30.195618%);fill-opacity:1;" d="M 205.9375 71.628906 C 205.972656 71.625 205.976562 71.625 205.9375 71.628906 "/>
<path style=" stroke:none;fill-rule:nonzero;fill:rgb(12.548828%,30.587769%,30.195618%);fill-opacity:1;" d="M 199.886719 77.207031 C 202.460938 75.621094 205.851562 71.652344 205.863281 71.636719 C 205.199219 71.695312 201.347656 72.113281 197.902344 73.832031 C 195.523438 75.023438 192.347656 76.8125 194.527344 78.992188 C 196.710938 81.179688 197.308594 78.796875 199.886719 77.207031 "/>
<path style=" stroke:none;fill-rule:nonzero;fill:rgb(12.548828%,30.587769%,30.195618%);fill-opacity:1;" d="M 205.867188 71.632812 L 205.863281 71.636719 C 205.890625 71.632812 205.925781 71.628906 205.9375 71.628906 C 205.921875 71.628906 205.90625 71.632812 205.867188 71.632812 "/>
<path style=" stroke:none;fill-rule:nonzero;fill:rgb(12.548828%,30.587769%,30.195618%);fill-opacity:1;" d="M 143.863281 92.523438 C 146.917969 93.167969 148.871094 89.875 149.972656 87.058594 C 151.421875 83.359375 151.824219 75.046875 151.824219 75.046875 C 151.824219 75.046875 144.019531 81.753906 143.058594 85.289062 C 142.089844 88.828125 142.457031 92.644531 143.863281 92.523438 "/>
<path style=" stroke:none;fill-rule:nonzero;fill:rgb(12.548828%,30.587769%,30.195618%);fill-opacity:1;" d="M 197.707031 85.59375 C 199.261719 85.386719 200.714844 85.308594 202.621094 84.277344 C 204.609375 83.222656 207.414062 80.300781 207.414062 80.300781 C 207.414062 80.300781 202.414062 79.988281 198.835938 81.972656 C 195.265625 83.957031 196.691406 85.730469 197.707031 85.59375 "/>
<path style=" stroke:none;fill-rule:nonzero;fill:rgb(12.548828%,30.587769%,30.195618%);fill-opacity:1;" d="M 179.015625 88.75 C 180.007812 87.359375 188.433594 80.039062 188.433594 80.039062 C 188.433594 80.039062 179.441406 82.078125 175.644531 83.589844 C 171.5 85.242188 168.476562 86.105469 170.484375 89.742188 C 172.84375 94.03125 178.023438 90.140625 179.015625 88.75 "/>
<path style=" stroke:none;fill-rule:nonzero;fill:rgb(12.548828%,30.587769%,30.195618%);fill-opacity:1;" d="M 131.910156 88.992188 C 131.691406 87.304688 128.570312 82.054688 128.570312 82.054688 C 128.570312 82.054688 126.484375 88.019531 126.304688 90.582031 C 126.117188 93.140625 127.109375 97.046875 130.328125 96.988281 C 133.546875 96.929688 132.003906 89.949219 131.910156 88.992188 "/>
<path style=" stroke:none;fill-rule:nonzero;fill:rgb(12.548828%,30.587769%,30.195618%);fill-opacity:1;" d="M 157.070312 94.011719 C 160.453125 92.230469 163.984375 84.515625 163.984375 84.515625 C 163.984375 84.515625 156.34375 86.332031 153.074219 89.371094 C 152.015625 90.660156 150.988281 93.371094 152.175781 94.574219 C 153.359375 95.773438 155.59375 94.789062 157.070312 94.011719 "/>
<path style=" stroke:none;fill-rule:nonzero;fill:rgb(12.548828%,30.587769%,30.195618%);fill-opacity:1;" d="M 185.503906 87.300781 C 182.859375 88.429688 179.015625 89.546875 180.125 92.328125 C 181.234375 95.109375 186.453125 90.246094 188.941406 88.949219 C 191.433594 87.652344 194.625 85.3125 194.625 85.3125 C 194.625 85.3125 188.148438 86.171875 185.503906 87.300781 "/>
<path style=" stroke:none;fill-rule:nonzero;fill:rgb(12.548828%,30.587769%,30.195618%);fill-opacity:1;" d="M 222.921875 109.425781 C 215.433594 108.953125 204.882812 99.414062 202.242188 97.285156 C 199.601562 95.15625 196.492188 91.414062 195.558594 91.886719 C 197.546875 94.574219 197.808594 96.085938 200.703125 99.320312 C 202.398438 101.214844 216.535156 113.164062 226.191406 113.402344 C 226.191406 113.402344 224.472656 117.882812 218.125 122.296875 C 212.40625 126.269531 202.296875 130.164062 197.308594 130.941406 C 193.011719 130.632812 189.835938 128.230469 186.5625 125.078125 C 185.765625 124.332031 182.835938 122.585938 182.835938 122.585938 C 182.835938 122.585938 188.347656 129.839844 192.867188 131.640625 C 186.667969 133.628906 180.433594 133.910156 173.648438 133.207031 C 173.648438 133.207031 170.769531 135.148438 171.351562 135.730469 C 178.132812 137.136719 194.449219 134.703125 196.960938 133.980469 C 210.292969 130.820312 226.191406 123.921875 230.636719 109.425781 C 228.300781 109.890625 224.789062 109.890625 222.921875 109.425781 "/>
<path style=" stroke:none;fill-rule:nonzero;fill:rgb(12.548828%,30.587769%,30.195618%);fill-opacity:1;" d="M 138.480469 99.15625 C 138.894531 97.265625 137.429688 91.324219 137.429688 91.324219 C 137.429688 91.324219 132.695312 98.761719 132.195312 100.152344 C 131.699219 101.546875 130.902344 105.527344 132.992188 105.726562 C 135.082031 105.925781 138.066406 101.046875 138.480469 99.15625 "/>
<path style=" stroke:none;fill-rule:nonzero;fill:rgb(12.548828%,30.587769%,30.195618%);fill-opacity:1;" d="M 167.601562 113.414062 C 168.589844 112.835938 169.191406 110.824219 169.191406 110.824219 C 169.191406 110.824219 168.816406 111.261719 167.894531 111.882812 C 164.996094 113.832031 160.121094 108.84375 160.261719 104.246094 C 160.457031 97.78125 167.007812 100.164062 167.007812 100.164062 C 167.007812 100.164062 158.660156 94.398438 157.910156 104.585938 C 157.683594 107.6875 162.242188 116.539062 167.601562 113.414062 "/>
<path style=" stroke:none;fill-rule:nonzero;fill:rgb(12.548828%,30.587769%,30.195618%);fill-opacity:1;" d="M 150.1875 96.910156 C 150.1875 96.910156 146.402344 97.929688 144.132812 98.964844 C 141.863281 100.003906 138.464844 103.144531 140.363281 104.980469 C 142.265625 106.8125 143.675781 104.933594 145.921875 103.132812 C 147.988281 101.480469 150.1875 96.910156 150.1875 96.910156 "/>
<path style=" stroke:none;fill-rule:nonzero;fill:rgb(12.548828%,30.587769%,30.195618%);fill-opacity:1;" d="M 153.1875 109.117188 C 154.683594 108.019531 155.214844 106.03125 155.214844 106.03125 C 155.214844 106.03125 150.304688 105.832031 148.910156 106.429688 C 147.519531 107.023438 144.929688 107.421875 146.222656 109.714844 C 147.519531 112.003906 151.699219 110.210938 153.1875 109.117188 "/>
<path style=" stroke:none;fill-rule:nonzero;fill:rgb(12.548828%,30.587769%,30.195618%);fill-opacity:1;" d="M 138.136719 112.757812 C 140.195312 112.074219 143.054688 109.421875 143.054688 109.421875 C 143.054688 109.421875 136.945312 108.90625 135.113281 109.546875 C 131.6875 110.746094 132.496094 112.535156 133.371094 113.488281 C 134.375 114.589844 136.074219 113.441406 138.136719 112.757812 "/>
<path style=" stroke:none;fill-rule:nonzero;fill:rgb(12.548828%,30.587769%,30.195618%);fill-opacity:1;" d="M 147.496094 117.140625 C 147.496094 117.140625 150.503906 117.972656 151.597656 118.171875 C 152.691406 118.371094 158.605469 118.195312 158.605469 118.195312 C 158.605469 118.195312 155.679688 114.757812 152.613281 113.582031 C 151.421875 113.125 149.367188 111.878906 146.445312 115.152344 C 146.09375 116.089844 146.914062 116.554688 147.496094 117.140625 "/>
<path style=" stroke:none;fill-rule:nonzero;fill:rgb(12.548828%,30.587769%,30.195618%);fill-opacity:1;" d="M 146.523438 119.367188 C 145.003906 118.101562 140.453125 113.894531 138.378906 116.089844 C 136.300781 118.285156 137.765625 118.96875 139.664062 120.183594 C 141.5625 121.394531 149.132812 123.222656 149.132812 123.222656 C 149.132812 123.222656 148.042969 120.632812 146.523438 119.367188 "/>
<path style=" stroke:none;fill-rule:nonzero;fill:rgb(12.548828%,30.587769%,30.195618%);fill-opacity:1;" d="M 134.726562 124.667969 C 132.351562 125.832031 133.019531 129.964844 133.816406 131.457031 C 134.617188 132.949219 138.351562 135.421875 138.351562 135.421875 C 138.351562 135.421875 138.296875 133.25 138.398438 130.5625 C 138.496094 127.875 137.101562 123.496094 134.726562 124.667969 "/>
<path style=" stroke:none;fill-rule:nonzero;fill:rgb(12.548828%,30.587769%,30.195618%);fill-opacity:1;" d="M 144.105469 125.558594 C 143.082031 125.582031 141.050781 126.632812 141.746094 128.621094 C 142.441406 130.613281 146.09375 133.980469 146.09375 133.980469 C 146.09375 133.980469 146.050781 131.132812 145.828125 129.617188 C 145.601562 128.101562 145.128906 125.535156 144.105469 125.558594 "/>
<path style=" stroke:none;fill-rule:nonzero;fill:rgb(12.548828%,30.587769%,30.195618%);fill-opacity:1;" d="M 167.761719 128.664062 C 165.484375 125.914062 162.820312 124.558594 158.199219 125.527344 C 153.578125 126.503906 149.925781 129.90625 151.152344 133.8125 C 155.476562 134.15625 156.59375 131.273438 157.070312 131.101562 C 158.164062 131.269531 159.917969 132.699219 160.230469 133.832031 C 161.25 133.539062 161.363281 131.226562 162.203125 130.609375 C 163.789062 129.5 166.378906 132.191406 167.972656 132.503906 C 167.972656 132.503906 168.511719 129.769531 167.761719 128.664062 M 169.929688 127.746094 C 171.273438 130.003906 170.253906 133.535156 169.023438 135.386719 C 168.523438 135.429688 165.628906 133.714844 164.046875 132.804688 C 162.746094 134.214844 161.3125 136.222656 160.472656 136.152344 C 160.121094 136.136719 157.460938 133.660156 156.957031 133.675781 C 155.792969 134.878906 151.914062 136.808594 151.441406 136.777344 C 151.136719 136.6875 143.796875 126.132812 159.160156 122.898438 C 162.980469 122.097656 168.582031 124.777344 169.929688 127.746094 "/>
<path style=" stroke:none;fill-rule:nonzero;fill:rgb(12.548828%,30.587769%,30.195618%);fill-opacity:1;" d="M 192.136719 107.933594 C 190.925781 106.5625 189.035156 106.222656 187.136719 106.035156 C 185.148438 106.5 183.160156 107.433594 182.109375 109.421875 C 181.878906 111.410156 182.460938 113.164062 183.867188 114.453125 C 185.382812 115.855469 187.839844 116.089844 189.828125 115.503906 C 191.007812 114.71875 192.046875 113.597656 192.601562 112.308594 C 191.960938 111.878906 191.21875 111.320312 190.378906 110.585938 C 188.167969 108.648438 190.242188 108.082031 192.136719 107.933594 "/>
<path style=" stroke:none;fill-rule:nonzero;fill:rgb(12.548828%,30.587769%,30.195618%);fill-opacity:1;" d="M 133.625 116.019531 C 126.089844 116.164062 122.277344 120.101562 124.546875 122.421875 C 127.429688 125.367188 134.289062 117.023438 133.625 116.019531 "/>
<path style=" stroke:none;fill-rule:nonzero;fill:rgb(12.548828%,30.587769%,30.195618%);fill-opacity:1;" d="M 124.589844 136.339844 C 124.589844 136.339844 121.109375 127.199219 127.476562 126.089844 C 127.476562 126.089844 128.113281 126.097656 128.292969 126.089844 C 129.035156 126.070312 130.183594 128.558594 128.78125 130.78125 C 126.503906 134.402344 124.648438 135.332031 124.589844 136.339844 "/>
<path style=" stroke:none;fill-rule:nonzero;fill:rgb(12.548828%,30.587769%,30.195618%);fill-opacity:1;" d="M 112.050781 136.464844 C 112.050781 136.464844 118.863281 129.832031 118.988281 129.195312 C 119.109375 128.558594 120.015625 125.078125 117.339844 124.726562 C 114.664062 124.378906 112.027344 131.316406 112.050781 136.464844 "/>
<path style=" stroke:none;fill-rule:nonzero;fill:rgb(12.548828%,30.587769%,30.195618%);fill-opacity:1;" d="M 108.488281 118.941406 C 108.488281 118.941406 111.699219 115.585938 118.308594 115.730469 C 124.917969 115.875 122.777344 118.261719 122.300781 118.714844 C 121.828125 119.167969 118.96875 121.269531 115.46875 120.960938 C 111.96875 120.652344 108.488281 118.941406 108.488281 118.941406 "/>
<path style=" stroke:none;fill-rule:nonzero;fill:rgb(12.548828%,30.587769%,30.195618%);fill-opacity:1;" d="M 99.59375 136.464844 C 99.59375 136.464844 99.878906 125.125 106.429688 123.839844 C 111.679688 122.8125 107.253906 131.089844 102.742188 134.796875 C 101.527344 135.796875 99.59375 136.464844 99.59375 136.464844 "/>
<path style=" stroke:none;fill-rule:nonzero;fill:rgb(12.548828%,30.587769%,30.195618%);fill-opacity:1;" d="M 92.324219 133.109375 C 92.324219 133.109375 93.359375 124.363281 97.289062 125.738281 C 101.398438 127.171875 93.175781 133.175781 92.324219 133.109375 "/>
<path style=" stroke:none;fill-rule:nonzero;fill:rgb(12.548828%,30.587769%,30.195618%);fill-opacity:1;" d="M 81.78125 135.3125 C 81.78125 135.3125 82.550781 125.675781 87.589844 125.902344 C 94.253906 126.203125 82.15625 135.679688 81.78125 135.3125 "/>
<path style=" stroke:none;fill-rule:nonzero;fill:rgb(12.548828%,30.587769%,30.195618%);fill-opacity:1;" d="M 72.953125 134.507812 C 72.953125 134.507812 74.90625 127.796875 78.28125 127.917969 C 81.660156 128.042969 78.859375 130.121094 78.675781 130.328125 C 78.488281 130.535156 73.710938 134.402344 72.953125 134.507812 "/>
<path style=" stroke:none;fill-rule:nonzero;fill:rgb(12.548828%,30.587769%,30.195618%);fill-opacity:1;" d="M 75.769531 124.191406 C 75.503906 124.816406 80.671875 123.90625 81.597656 123.472656 C 82.523438 123.039062 85.28125 121.289062 85.078125 119.640625 C 84.871094 117.996094 82.011719 119.128906 81.082031 119.640625 C 80.15625 120.15625 76.285156 123 75.769531 124.191406 "/>
<path style=" stroke:none;fill-rule:nonzero;fill:rgb(12.548828%,30.587769%,30.195618%);fill-opacity:1;" d="M 63.726562 133.601562 C 64.570312 133.726562 71.28125 131.210938 71.140625 129.214844 C 70.996094 127.21875 69.203125 127.960938 68.605469 128.289062 C 68.007812 128.621094 63.808594 132.984375 63.726562 133.601562 "/>
<path style=" stroke:none;fill-rule:nonzero;fill:rgb(12.548828%,30.587769%,30.195618%);fill-opacity:1;" d="M 63.046875 125.40625 C 63.046875 125.40625 67.722656 117.6875 73.484375 117.292969 C 79.25 116.902344 67.699219 126.722656 63.046875 125.40625 "/>
<path style=" stroke:none;fill-rule:nonzero;fill:rgb(12.548828%,30.587769%,30.195618%);fill-opacity:1;" d="M 55.183594 121.59375 C 55.183594 121.59375 59.609375 118.039062 61.773438 118.324219 C 63.933594 118.613281 64.734375 122.132812 61.773438 122.007812 C 58.804688 121.886719 55.183594 121.59375 55.183594 121.59375 "/>
<path style=" stroke:none;fill-rule:nonzero;fill:rgb(12.548828%,30.587769%,30.195618%);fill-opacity:1;" d="M 53.019531 113.445312 C 52.378906 112.8125 60.039062 110.128906 64.859375 110.292969 C 69.675781 110.460938 69.617188 111.695312 69.59375 112.046875 C 69.574219 112.394531 66.609375 115.441406 61.8125 115.007812 C 57.015625 114.578125 54.296875 114.703125 53.019531 113.445312 "/>
<path style=" stroke:none;fill-rule:nonzero;fill:rgb(12.548828%,30.587769%,30.195618%);fill-opacity:1;" d="M 53.824219 103.027344 C 53.824219 103.027344 58.003906 101.914062 60.082031 102.039062 C 62.160156 102.164062 68.152344 102.71875 67.863281 105.003906 C 67.578125 107.289062 64.179688 106.546875 63.355469 106.464844 C 62.53125 106.382812 55.984375 104.921875 53.824219 103.027344 "/>
<path style=" stroke:none;fill-rule:nonzero;fill:rgb(12.548828%,30.587769%,30.195618%);fill-opacity:1;" d="M 71.222656 106.527344 C 71.222656 106.527344 74.351562 105.3125 76.226562 105.375 C 78.097656 105.433594 82.257812 105.433594 82.402344 107.722656 C 82.546875 110.007812 80.179688 109.902344 79.292969 109.800781 C 78.40625 109.699219 74.558594 109.738281 71.222656 106.527344 "/>
<path style=" stroke:none;fill-rule:nonzero;fill:rgb(12.548828%,30.587769%,30.195618%);fill-opacity:1;" d="M 79.25 116.058594 C 80.425781 114.472656 86.066406 109.945312 90.039062 110.089844 C 94.011719 110.234375 93.601562 110.953125 93.621094 111.40625 C 93.644531 111.859375 89.441406 115.914062 85.304688 115.792969 C 81.167969 115.667969 79.25 116.058594 79.25 116.058594 "/>
<path style=" stroke:none;fill-rule:nonzero;fill:rgb(12.548828%,30.587769%,30.195618%);fill-opacity:1;" d="M 57.613281 95.613281 C 57.613281 95.613281 66.816406 96.210938 69.183594 96.890625 C 71.550781 97.570312 73.628906 98.210938 73.15625 98.886719 C 72.683594 99.566406 70.707031 100.988281 67.164062 100.433594 C 63.625 99.878906 59.011719 96.726562 57.613281 95.613281 "/>
<path style=" stroke:none;fill-rule:nonzero;fill:rgb(12.548828%,30.587769%,30.195618%);fill-opacity:1;" d="M 55.636719 86.308594 C 59.855469 86.617188 61.914062 86.699219 64.363281 87.523438 C 66.816406 88.347656 70.066406 90.363281 69.386719 91.003906 C 68.710938 91.640625 65.527344 92.382812 62.558594 91.230469 C 59.589844 90.078125 56.375 87.585938 55.636719 86.308594 "/>
<path style=" stroke:none;fill-rule:nonzero;fill:rgb(12.548828%,30.587769%,30.195618%);fill-opacity:1;" d="M 59.402344 77.621094 C 60.949219 77.804688 66.339844 78.136719 68.421875 79.328125 C 70.5 80.523438 73.507812 83.28125 72.496094 84.125 C 71.488281 84.96875 68.214844 84.949219 65.3125 83.117188 C 62.410156 81.285156 59.402344 77.621094 59.402344 77.621094 "/>
<path style=" stroke:none;fill-rule:nonzero;fill:rgb(12.548828%,30.587769%,30.195618%);fill-opacity:1;" d="M 75.011719 87.933594 C 77.109375 87.933594 79.828125 88.121094 82.75 89.769531 C 85.675781 91.414062 85.941406 93.019531 85.078125 93.90625 C 84.214844 94.792969 82.113281 94.9375 78.675781 92.03125 C 75.238281 89.128906 75.011719 87.933594 75.011719 87.933594 "/>
<path style=" stroke:none;fill-rule:nonzero;fill:rgb(12.548828%,30.587769%,30.195618%);fill-opacity:1;" d="M 74.144531 76.488281 C 76.59375 76.714844 84.070312 77.539062 85.160156 78.175781 C 86.25 78.8125 87.28125 80.644531 86.476562 81.574219 C 85.675781 82.5 84.253906 84.351562 79.808594 81.574219 C 75.359375 78.792969 74.144531 76.488281 74.144531 76.488281 "/>
<path style=" stroke:none;fill-rule:nonzero;fill:rgb(12.548828%,30.587769%,30.195618%);fill-opacity:1;" d="M 64.652344 67.941406 C 66.980469 68.066406 71.902344 69.035156 72.292969 71.011719 C 72.683594 72.988281 72.023438 73.605469 71.015625 73.417969 C 70.007812 73.234375 66.609375 70.023438 65.828125 69.117188 C 65.042969 68.210938 64.652344 67.941406 64.652344 67.941406 "/>
<path style=" stroke:none;fill-rule:nonzero;fill:rgb(12.548828%,30.587769%,30.195618%);fill-opacity:1;" d="M 70.890625 59.335938 C 70.179688 58.863281 79.414062 63.351562 81.578125 66.234375 C 83.738281 69.117188 84.007812 70.375 83.738281 71.09375 C 83.472656 71.8125 82.339844 72.964844 79.808594 71.484375 C 77.273438 70.003906 75.339844 67.078125 74.144531 64.894531 C 72.949219 62.714844 71.324219 59.625 70.890625 59.335938 "/>
<path style=" stroke:none;fill-rule:nonzero;fill:rgb(12.548828%,30.587769%,30.195618%);fill-opacity:1;" d="M 76.988281 54.4375 C 77.171875 54.808594 78.570312 59.441406 80.570312 60.40625 C 82.566406 61.375 83.140625 61.5 83.226562 60.652344 C 83.304688 59.8125 83.679688 58.367188 81.351562 56.640625 C 79.023438 54.910156 77.316406 54.476562 76.988281 54.4375 "/>
<path style=" stroke:none;fill-rule:nonzero;fill:rgb(12.548828%,30.587769%,30.195618%);fill-opacity:1;" d="M 85.285156 64.03125 C 87.28125 64.300781 89.523438 64.917969 90.453125 65.84375 C 91.378906 66.769531 92.488281 70.1875 91.523438 70.394531 C 90.554688 70.597656 86.3125 66.089844 85.285156 64.03125 "/>
<path style=" stroke:none;fill-rule:nonzero;fill:rgb(12.548828%,30.587769%,30.195618%);fill-opacity:1;" d="M 82.546875 47.332031 C 82.480469 47.324219 83.761719 52.953125 85.097656 54.746094 C 86.4375 56.535156 91.007812 60.675781 92.242188 60.058594 C 93.476562 59.441406 93.664062 55.21875 92.242188 53.40625 C 90.820312 51.597656 83.554688 47.457031 82.546875 47.332031 "/>
<path style=" stroke:none;fill-rule:nonzero;fill:rgb(12.548828%,30.587769%,30.195618%);fill-opacity:1;" d="M 93.910156 41.835938 C 93.910156 42.351562 93.890625 49.496094 94.21875 50.195312 C 94.550781 50.894531 96.546875 54.109375 97.742188 54.042969 C 98.933594 53.984375 99.921875 52.808594 99.859375 51.535156 C 99.796875 50.257812 98.933594 47.601562 97.472656 45.871094 C 96.011719 44.140625 93.910156 41.835938 93.910156 41.835938 "/>
<path style=" stroke:none;fill-rule:nonzero;fill:rgb(12.548828%,30.587769%,30.195618%);fill-opacity:1;" d="M 101.382812 35.289062 C 101.382812 35.289062 101.589844 41.652344 101.796875 42.472656 C 102 43.296875 102.742188 47.210938 103.894531 48.117188 C 105.050781 49.023438 105.605469 49.597656 106.386719 49.476562 C 107.171875 49.351562 108.324219 48.261719 108.199219 46.675781 C 108.074219 45.089844 108.117188 44.839844 104.96875 40.601562 C 101.816406 36.359375 101.382812 35.289062 101.382812 35.289062 "/>
<path style=" stroke:none;fill-rule:nonzero;fill:rgb(12.548828%,30.587769%,30.195618%);fill-opacity:1;" d="M 113.078125 35.824219 C 113.078125 35.824219 110.320312 39.632812 110.628906 41.589844 C 110.9375 43.546875 111.164062 46.28125 113.492188 46.261719 C 115.816406 46.242188 116.269531 43.832031 116.207031 42.90625 C 116.148438 41.980469 115.242188 39.035156 114.355469 37.757812 C 113.472656 36.484375 113.078125 35.824219 113.078125 35.824219 "/>
<path style=" stroke:none;fill-rule:nonzero;fill:rgb(12.548828%,30.587769%,30.195618%);fill-opacity:1;" d="M 121.789062 29.851562 C 121.789062 29.851562 120.511719 37.964844 120.492188 38.996094 C 120.46875 40.023438 120.71875 43.132812 120.71875 43.132812 C 120.71875 43.132812 122.304688 48.589844 126.398438 48.9375 C 130.496094 49.289062 126.8125 35.636719 125.90625 34.570312 C 125 33.496094 121.789062 29.851562 121.789062 29.851562 "/>
<path style=" stroke:none;fill-rule:nonzero;fill:rgb(12.548828%,30.587769%,30.195618%);fill-opacity:1;" d="M 133.996094 31.191406 C 133.339844 33.414062 128.492188 45.011719 134.226562 45.148438 C 141.019531 45.316406 133.996094 31.191406 133.996094 31.191406 "/>
<path style=" stroke:none;fill-rule:nonzero;fill:rgb(12.548828%,30.587769%,30.195618%);fill-opacity:1;" d="M 146.640625 30.101562 C 146.640625 30.101562 143.738281 36.011719 142.953125 37.265625 C 142.171875 38.523438 141.367188 40.519531 141.386719 41.816406 C 141.410156 43.113281 141.554688 47.25 145.300781 47.4375 C 149.046875 47.621094 148.574219 42.742188 148.59375 42.0625 C 148.617188 41.382812 148.449219 35.636719 148.019531 34.570312 C 147.585938 33.496094 146.640625 30.101562 146.640625 30.101562 "/>
<path style=" stroke:none;fill-rule:nonzero;fill:rgb(12.548828%,30.587769%,30.195618%);fill-opacity:1;" d="M 158.148438 32.324219 C 158.148438 32.324219 154.03125 40.003906 153.703125 41.609375 C 153.371094 43.214844 152.339844 46.222656 155.511719 46.777344 C 158.683594 47.332031 158.558594 42.207031 158.519531 41.527344 C 158.476562 40.847656 158.148438 32.324219 158.148438 32.324219 "/>
<path style=" stroke:none;fill-rule:nonzero;fill:rgb(12.548828%,30.587769%,30.195618%);fill-opacity:1;" d="M 138.628906 47.25 C 138.628906 47.25 136.425781 51.554688 136.242188 52.871094 C 136.058594 54.1875 135.746094 57.628906 136.097656 58.964844 C 136.445312 60.304688 137.046875 62.507812 139.617188 62.570312 C 142.191406 62.632812 142.355469 58.65625 142.335938 57.132812 C 142.316406 55.609375 140.566406 50.792969 139.761719 49.308594 C 138.960938 47.828125 138.628906 47.25 138.628906 47.25 "/>
<path style=" stroke:none;fill-rule:nonzero;fill:rgb(12.548828%,30.587769%,30.195618%);fill-opacity:1;" d="M 129.445312 54.582031 C 129.445312 54.582031 125.886719 60.386719 125.492188 61.746094 C 125.101562 63.105469 124.691406 65.554688 124.917969 67.386719 C 125.144531 69.21875 125.453125 72.964844 128.273438 72.988281 C 131.09375 73.007812 131.628906 66.089844 131.648438 64.628906 C 131.671875 63.167969 130.660156 58.367188 130.1875 56.867188 C 129.714844 55.363281 129.445312 54.582031 129.445312 54.582031 "/>
<path style=" stroke:none;fill-rule:nonzero;fill:rgb(12.548828%,30.587769%,30.195618%);fill-opacity:1;" d="M 116.496094 47.128906 C 116.496094 47.128906 116.167969 53.222656 116.351562 54.582031 C 116.539062 55.941406 117.320312 58.511719 119.277344 58.679688 C 121.230469 58.84375 121.417969 55.464844 121.273438 54.664062 C 121.128906 53.859375 119.730469 50.875 118.453125 49.289062 C 117.175781 47.703125 116.496094 47.128906 116.496094 47.128906 "/>
<path style=" stroke:none;fill-rule:nonzero;fill:rgb(12.548828%,30.587769%,30.195618%);fill-opacity:1;" d="M 111.90625 55.382812 C 111.90625 55.382812 112.667969 62.199219 113.039062 64.132812 C 113.40625 66.070312 114.789062 70.289062 115.445312 71.074219 C 116.105469 71.855469 117.175781 73.417969 118.636719 73.359375 C 120.097656 73.296875 121.746094 71.402344 121.664062 70.1875 C 121.582031 68.972656 120.574219 64.382812 118.0625 61.582031 C 115.550781 58.78125 111.90625 55.382812 111.90625 55.382812 "/>
<path style=" stroke:none;fill-rule:nonzero;fill:rgb(12.548828%,30.587769%,30.195618%);fill-opacity:1;" d="M 101.777344 55.589844 C 101.777344 55.589844 102.722656 59.480469 102.886719 60.386719 C 103.050781 61.292969 104.988281 64.503906 105.769531 64.875 C 106.550781 65.246094 108.695312 65.882812 108.796875 64.523438 C 108.898438 63.167969 109.003906 61.003906 107.703125 59.769531 C 106.40625 58.535156 102.96875 55.878906 102.371094 55.734375 Z M 101.777344 55.589844 "/>
<path style=" stroke:none;fill-rule:nonzero;fill:rgb(12.548828%,30.587769%,30.195618%);fill-opacity:1;" d="M 109.683594 71.710938 C 109.683594 71.710938 110.320312 77.25 111.019531 78.277344 C 111.71875 79.308594 113.945312 81.574219 115.652344 80.730469 C 117.359375 79.882812 116.105469 76.527344 114.625 75.066406 C 113.140625 73.605469 110.628906 71.773438 109.683594 71.710938 "/>
<path style=" stroke:none;fill-rule:nonzero;fill:rgb(12.548828%,30.587769%,30.195618%);fill-opacity:1;" d="M 96.113281 62.09375 C 96.113281 62.09375 96.667969 66.648438 97.203125 67.738281 C 97.742188 68.828125 99.574219 72.679688 100.046875 73.359375 C 100.519531 74.039062 101.941406 76.445312 103.214844 76.3125 C 104.492188 76.179688 105.476562 74.46875 105.3125 73.503906 C 105.152344 72.535156 104.71875 69.074219 102.125 66.542969 C 99.53125 64.011719 96.113281 62.09375 96.113281 62.09375 "/>
<path style=" stroke:none;fill-rule:nonzero;fill:rgb(12.548828%,30.587769%,30.195618%);fill-opacity:1;" d="M 91.015625 74.15625 C 91.015625 74.15625 93.859375 81.453125 94.082031 82.054688 C 94.304688 82.65625 95.597656 86.167969 97.703125 85.945312 C 99.8125 85.726562 100.179688 82.898438 100.105469 82.054688 C 100.03125 81.214844 95.78125 77.222656 94.117188 75.964844 C 92.453125 74.710938 91.015625 74.15625 91.015625 74.15625 "/>
<path style=" stroke:none;fill-rule:nonzero;fill:rgb(12.548828%,30.587769%,30.195618%);fill-opacity:1;" d="M 89.832031 89.863281 C 90.164062 91.234375 91.753906 96.011719 93.121094 96.988281 C 94.488281 97.960938 96.152344 100.4375 97.519531 100.179688 C 98.886719 99.917969 99.292969 98.882812 99.109375 97.886719 C 98.925781 96.886719 98.332031 94.078125 96.113281 92.636719 C 93.898438 91.195312 89.832031 89.863281 89.832031 89.863281 "/>
<path style=" stroke:none;fill-rule:nonzero;fill:rgb(12.548828%,30.587769%,30.195618%);fill-opacity:1;" d="M 77.667969 98.957031 C 77.667969 98.957031 83.511719 98.738281 85.246094 99.21875 C 86.984375 99.699219 94.648438 101.546875 93.625 103.023438 C 92.605469 104.503906 90.867188 104.910156 88.609375 104.539062 C 86.355469 104.171875 78.742188 100.363281 77.667969 98.957031 "/>
<path style=" stroke:none;fill-rule:nonzero;fill:rgb(12.548828%,30.587769%,30.195618%);fill-opacity:1;" d="M 98.996094 89.238281 C 101.179688 89.9375 107.019531 92.5625 108.089844 93.820312 C 109.164062 95.078125 112.492188 99.585938 111.085938 100.808594 C 109.679688 102.027344 106.171875 101.027344 102.621094 96.445312 C 99.070312 91.863281 98.996094 89.238281 98.996094 89.238281 "/>
<path style=" stroke:none;fill-rule:nonzero;fill:rgb(12.548828%,30.587769%,30.195618%);fill-opacity:1;" d="M 96.484375 108.460938 C 96.484375 108.460938 98.886719 106.796875 104.503906 107.164062 C 110.125 107.535156 111.875 109.308594 111.90625 110.269531 C 111.9375 111.230469 110.976562 113.042969 106.652344 112.304688 C 102.324219 111.5625 96.484375 108.460938 96.484375 108.460938 "/>
<path style=" stroke:none;fill-rule:nonzero;fill:rgb(12.548828%,30.587769%,30.195618%);fill-opacity:1;" d="M 106.984375 83.042969 C 106.984375 83.042969 107.242188 88.203125 109.3125 89.867188 C 111.382812 91.527344 112.675781 93.597656 114.5625 93.414062 C 116.445312 93.230469 116.800781 92.082031 116.476562 91.046875 C 116.152344 90.011719 113.046875 86.796875 110.9375 85.464844 C 108.832031 84.136719 106.984375 83.042969 106.984375 83.042969 "/>
<path style=" stroke:none;fill-rule:nonzero;fill:rgb(12.548828%,30.587769%,30.195618%);fill-opacity:1;" d="M 119.367188 77.257812 C 119.367188 77.257812 118.332031 81.585938 118.554688 83.320312 C 118.773438 85.058594 119.996094 90.308594 122.472656 90.199219 C 124.949219 90.085938 124.691406 87.941406 124.578125 87.242188 C 124.46875 86.539062 122.621094 82.222656 121.175781 80.054688 C 119.734375 77.886719 119.367188 77.257812 119.367188 77.257812 "/>
<path style=" stroke:none;fill-rule:nonzero;fill:rgb(12.548828%,30.587769%,30.195618%);fill-opacity:1;" d="M 117.886719 94.707031 C 117.886719 94.707031 118.332031 98.960938 118.996094 100.199219 C 119.660156 101.433594 121.992188 104.464844 124.097656 104.320312 C 126.207031 104.171875 125.464844 103.652344 125.464844 103.171875 C 125.464844 102.691406 124.949219 99.808594 122.65625 97.851562 C 120.363281 95.890625 117.886719 94.707031 117.886719 94.707031 "/>
<path style=" stroke:none;fill-rule:nonzero;fill:rgb(12.548828%,30.587769%,30.195618%);fill-opacity:1;" d="M 113.078125 105.910156 C 113.078125 105.910156 116.851562 105.390625 119.773438 106.203125 C 122.695312 107.015625 126.871094 109.199219 125.761719 111.417969 C 124.652344 113.632812 120.882812 112.042969 119.144531 111.160156 C 117.40625 110.269531 113.078125 105.910156 113.078125 105.910156 "/>
<path style=" stroke:none;fill-rule:nonzero;fill:rgb(12.548828%,30.587769%,30.195618%);fill-opacity:1;" d="M 102.703125 115.09375 C 101.535156 113.773438 97.789062 115.398438 95.378906 117.8125 C 92.96875 120.222656 90.527344 123.273438 90.527344 123.273438 C 90.527344 123.273438 97.738281 121.832031 99.320312 120.695312 C 100.902344 119.558594 105.035156 117.726562 102.703125 115.09375 "/>
<path style=" stroke:none;fill-rule:nonzero;fill:rgb(12.548828%,30.587769%,30.195618%);fill-opacity:1;" d="M 232.488281 167.304688 L 51.976562 167.304688 L 51.976562 155.503906 L 232.488281 155.503906 Z M 232.488281 167.304688 "/>
<path style=" stroke:none;fill-rule:nonzero;fill:rgb(12.548828%,30.587769%,30.195618%);fill-opacity:1;" d="M 55.933594 189.144531 L 55.933594 198.53125 C 56.8125 198.625 57.507812 198.671875 58.011719 198.671875 C 60.386719 198.671875 62.121094 198.273438 63.214844 197.480469 C 64.3125 196.6875 64.859375 195.398438 64.859375 193.609375 C 64.859375 190.566406 62.410156 189.046875 57.511719 189.046875 C 56.964844 189.046875 56.441406 189.078125 55.933594 189.144531 M 55.933594 203.152344 L 55.933594 213.941406 L 50.730469 213.941406 L 50.730469 184.644531 C 54.199219 184.496094 56.226562 184.425781 56.8125 184.425781 C 61.441406 184.425781 64.828125 185.132812 66.96875 186.554688 C 69.109375 187.976562 70.179688 190.195312 70.179688 193.207031 C 70.179688 199.933594 66.21875 203.292969 58.292969 203.292969 C 57.707031 203.292969 56.917969 203.246094 55.933594 203.152344 "/>
<path style=" stroke:none;fill-rule:nonzero;fill:rgb(12.548828%,30.587769%,30.195618%);fill-opacity:1;" d="M 76.648438 184.621094 L 81.851562 184.621094 L 81.851562 213.941406 L 76.648438 213.941406 Z M 76.648438 184.621094 "/>
<path style=" stroke:none;fill-rule:nonzero;fill:rgb(12.548828%,30.587769%,30.195618%);fill-opacity:1;" d="M 109.808594 186.183594 L 107.667969 190.488281 C 106.507812 189.324219 104.640625 188.746094 102.0625 188.746094 C 99.621094 188.746094 97.621094 189.769531 96.0625 191.816406 C 94.5 193.863281 93.71875 196.457031 93.71875 199.59375 C 93.71875 202.726562 94.441406 205.214844 95.890625 207.054688 C 97.335938 208.898438 99.269531 209.820312 101.683594 209.820312 C 104.445312 209.820312 106.605469 208.832031 108.167969 206.859375 L 110.589844 211.058594 C 108.46875 213.316406 105.359375 214.441406 101.261719 214.441406 C 97.167969 214.441406 93.984375 213.09375 91.71875 210.398438 C 89.449219 207.703125 88.316406 204.027344 88.316406 199.371094 C 88.316406 195.035156 89.574219 191.410156 92.085938 188.496094 C 94.601562 185.578125 97.820312 184.125 101.746094 184.125 C 105.105469 184.125 107.792969 184.808594 109.808594 186.183594 "/>
<path style=" stroke:none;fill-rule:nonzero;fill:rgb(12.548828%,30.587769%,30.195618%);fill-opacity:1;" d="M 126.480469 193.1875 L 122.960938 204.015625 L 130.003906 204.015625 Z M 133.664062 213.941406 L 131.523438 208 L 121.476562 208 L 119.4375 213.941406 L 113.652344 213.941406 L 125.339844 184.222656 L 127.621094 184.222656 L 139.410156 213.941406 Z M 133.664062 213.941406 "/>
<path style=" stroke:none;fill-rule:nonzero;fill:rgb(12.548828%,30.587769%,30.195618%);fill-opacity:1;" d="M 149.675781 189.144531 L 149.675781 197.292969 C 150.636719 197.371094 151.371094 197.410156 151.878906 197.410156 C 154.054688 197.410156 155.644531 197.105469 156.652344 196.492188 C 157.660156 195.875 158.164062 194.683594 158.164062 192.90625 C 158.164062 191.464844 157.621094 190.460938 156.539062 189.886719 C 155.460938 189.3125 153.761719 189.027344 151.4375 189.027344 C 150.878906 189.027344 150.289062 189.066406 149.675781 189.144531 M 160.804688 213.941406 L 152.980469 201.835938 C 152.191406 201.820312 151.089844 201.773438 149.675781 201.695312 L 149.675781 213.941406 L 144.273438 213.941406 L 144.273438 184.621094 C 144.566406 184.621094 145.695312 184.574219 147.65625 184.472656 C 149.617188 184.375 151.195312 184.320312 152.398438 184.320312 C 159.84375 184.320312 163.566406 187.207031 163.566406 192.96875 C 163.566406 194.703125 163.050781 196.285156 162.023438 197.710938 C 160.996094 199.140625 159.703125 200.144531 158.140625 200.730469 L 166.808594 213.941406 Z M 160.804688 213.941406 "/>
<path style=" stroke:none;fill-rule:nonzero;fill:rgb(12.548828%,30.587769%,30.195618%);fill-opacity:1;" d="M 176.273438 189.1875 L 176.273438 209.199219 C 177.117188 209.277344 178.023438 209.316406 178.996094 209.316406 C 181.625 209.316406 183.683594 208.363281 185.171875 206.457031 C 186.65625 204.550781 187.402344 201.882812 187.402344 198.453125 C 187.402344 192.179688 184.488281 189.046875 178.65625 189.046875 C 178.097656 189.046875 177.300781 189.09375 176.273438 189.1875 M 177.578125 213.941406 L 171.070312 213.941406 L 171.070312 184.644531 C 175.21875 184.496094 177.828125 184.425781 178.898438 184.425781 C 183.164062 184.425781 186.550781 185.671875 189.054688 188.175781 C 191.554688 190.675781 192.804688 193.996094 192.804688 198.132812 C 192.804688 208.671875 187.730469 213.941406 177.578125 213.941406 "/>
<path style=" stroke:none;fill-rule:nonzero;fill:rgb(12.548828%,30.587769%,30.195618%);fill-opacity:1;" d="M 199.269531 184.621094 L 204.472656 184.621094 L 204.472656 213.941406 L 199.269531 213.941406 Z M 199.269531 184.621094 "/>
<path style=" stroke:none;fill-rule:nonzero;fill:rgb(12.548828%,30.587769%,30.195618%);fill-opacity:1;" d="M 217.542969 189.246094 L 217.542969 196.109375 L 227.230469 196.109375 L 227.230469 200.535156 L 217.542969 200.535156 L 217.542969 209.316406 L 230.832031 209.316406 L 230.832031 213.941406 L 212.339844 213.941406 L 212.339844 184.621094 L 231.050781 184.621094 L 231.050781 189.246094 Z M 217.542969 189.246094 "/>
<path style=" stroke:none;fill-rule:nonzero;fill:rgb(12.548828%,30.587769%,30.195618%);fill-opacity:1;" d="M 71.261719 252.984375 L 55.859375 235.820312 L 55.859375 252.632812 L 50.441406 252.632812 L 50.441406 225.492188 L 53.148438 225.492188 L 68.140625 241.859375 L 68.140625 225.492188 L 73.558594 225.492188 L 73.558594 252.984375 Z M 71.261719 252.984375 "/>
<path style=" stroke:none;fill-rule:nonzero;fill:rgb(12.548828%,30.587769%,30.195618%);fill-opacity:1;" d="M 95.324219 233.414062 L 91.515625 243.429688 L 99.140625 243.429688 Z M 103.101562 252.613281 L 100.785156 247.117188 L 89.910156 247.117188 L 87.699219 252.613281 L 81.441406 252.613281 L 94.089844 225.121094 L 96.5625 225.121094 L 109.320312 252.613281 Z M 103.101562 252.613281 "/>
<path style=" stroke:none;fill-rule:nonzero;fill:rgb(12.548828%,30.587769%,30.195618%);fill-opacity:1;" d="M 125.910156 229.769531 L 125.910156 252.617188 L 120.277344 252.617188 L 120.277344 229.769531 L 110.183594 229.769531 L 110.183594 225.492188 L 136.460938 225.492188 L 136.460938 229.769531 Z M 125.910156 229.769531 "/>
<path style=" stroke:none;fill-rule:nonzero;fill:rgb(12.548828%,30.587769%,30.195618%);fill-opacity:1;" d="M 144.667969 225.492188 L 150.300781 225.492188 L 150.300781 243.875 C 150.300781 245.332031 150.820312 246.515625 151.859375 247.429688 C 152.902344 248.34375 154.332031 248.800781 156.152344 248.800781 C 158.1875 248.800781 159.769531 248.351562 160.90625 247.460938 C 162.039062 246.5625 162.605469 245.339844 162.605469 243.78125 L 162.605469 225.492188 L 168.238281 225.492188 L 168.238281 244.152344 C 168.238281 246.941406 167.144531 249.128906 164.957031 250.707031 C 162.769531 252.289062 159.847656 253.078125 156.195312 253.078125 C 152.511719 253.078125 149.667969 252.308594 147.667969 250.761719 C 145.667969 249.222656 144.667969 247.011719 144.667969 244.136719 Z M 144.667969 225.492188 "/>
<path style=" stroke:none;fill-rule:nonzero;fill:rgb(12.548828%,30.587769%,30.195618%);fill-opacity:1;" d="M 185.113281 229.675781 L 185.113281 237.210938 C 186.152344 237.285156 186.945312 237.320312 187.492188 237.320312 C 189.847656 237.320312 191.570312 237.039062 192.660156 236.46875 C 193.75 235.902344 194.296875 234.796875 194.296875 233.15625 C 194.296875 231.820312 193.710938 230.890625 192.539062 230.359375 C 191.371094 229.828125 189.53125 229.5625 187.015625 229.5625 C 186.410156 229.5625 185.773438 229.601562 185.113281 229.675781 M 197.15625 252.613281 L 188.683594 241.414062 C 187.832031 241.398438 186.640625 241.355469 185.113281 241.285156 L 185.113281 252.613281 L 179.261719 252.613281 L 179.261719 225.492188 C 179.578125 225.492188 180.800781 225.445312 182.921875 225.351562 C 185.046875 225.257812 186.757812 225.210938 188.058594 225.210938 C 196.117188 225.210938 200.144531 227.878906 200.144531 233.210938 C 200.144531 234.8125 199.589844 236.277344 198.476562 237.597656 C 197.363281 238.921875 195.964844 239.851562 194.273438 240.394531 L 203.65625 252.613281 Z M 197.15625 252.613281 "/>
<path style=" stroke:none;fill-rule:nonzero;fill:rgb(12.548828%,30.587769%,30.195618%);fill-opacity:1;" d="M 216.519531 229.769531 L 216.519531 236.117188 L 227.003906 236.117188 L 227.003906 240.207031 L 216.519531 240.207031 L 216.519531 248.335938 L 230.902344 248.335938 L 230.902344 252.617188 L 210.886719 252.617188 L 210.886719 225.492188 L 231.140625 225.492188 L 231.140625 229.769531 Z M 216.519531 229.769531 "/>
</g>
</svg>
